<?xml version="1.0" encoding="utf-8"?>
<!DOCTYPE svg PUBLIC "-//W3C//DTD SVG 1.0//EN" "http://www.w3.org/TR/2001/REC-SVG-20010904/DTD/svg10.dtd">
<svg version="1.0" xmlns="http://www.w3.org/2000/svg" width="500px" height="500px" viewBox="0 0 500 500" preserveAspectRatio="xMidYMid meet">
 <g fill="#fbfcfc">
  <path d="M220.40 286.15 c-0.50 -0.10 -0.90 -0.55 -0.90 -0.95 0 -0.55 0.75 -0.70 3 -0.70 2.20 0 3 0.20 3 0.70 0 1.05 -2.75 1.60 -5.10 0.95z"/>
  <path d="M369.50 286.15 c-4.15 -0.60 -4.50 -0.75 -4.50 -1.50 0 -0.65 0.45 -0.75 3.05 -0.45 1.70 0.15 3.65 0.30 4.25 0.30 0.85 0 1.20 0.30 1.20 1 0 1 -0.80 1.15 -4 0.65z"/>
  <path d="M377 285.50 c0 -0.85 0.35 -1 2.25 -1 2.45 0 3.20 1.15 1.15 1.70 -2.25 0.60 -3.40 0.35 -3.40 -0.70z"/>
  <path d="M354.75 284.45 c-3.85 -0.50 -7.05 -0.90 -7.10 -0.90 -0.10 -0.05 -0.15 -0.40 -0.15 -0.80 0 -0.95 -0.30 -0.95 9.15 0.10 6.90 0.75 7.85 0.95 7.85 1.75 0 1.10 -0.35 1.10 -9.75 -0.15z"/>
  <path d="M343 283.15 c-4.15 -0.60 -4.50 -0.75 -4.50 -1.50 0 -0.65 0.45 -0.75 3.05 -0.45 1.70 0.15 3.50 0.30 4 0.30 0.60 0 0.95 0.35 0.95 1 0 1 -0.55 1.15 -3.50 0.65z"/>
  <path d="M334.90 282.15 c-1.80 -0.45 -1 -1.65 1.10 -1.65 1.65 0 2 0.15 2 1 0 1 -1 1.20 -3.10 0.65z"/>
  <path d="M330.40 281.65 c-1.80 -0.45 -1 -1.65 1.10 -1.65 1.65 0 2 0.15 2 1 0 1 -1 1.20 -3.10 0.65z"/>
  <path d="M325.40 281.15 c-1.80 -0.45 -1 -1.65 1.10 -1.65 1.65 0 2 0.15 2 1 0 1 -1 1.20 -3.10 0.65z"/>
  <path d="M320.50 280.65 c-4.15 -0.60 -4.50 -0.75 -4.50 -1.50 0 -0.65 0.45 -0.75 3.05 -0.45 1.70 0.15 3.50 0.30 4 0.30 0.60 0 0.95 0.35 0.95 1 0 1 -0.55 1.15 -3.50 0.65z"/>
  <path d="M393.50 279.10 c0 -1.65 1.35 -3.10 2.90 -3.10 0.90 0 1.10 -0.30 1.10 -1.50 0 -0.90 0.30 -1.65 0.75 -1.80 0.40 -0.20 0.75 -0.60 0.75 -1 0 -0.40 0.35 -0.70 0.75 -0.70 0.45 0 0.75 -0.45 0.75 -1.25 0 -0.70 0.25 -1.25 0.50 -1.25 0.30 0 0.50 -0.45 0.50 -1 0 -0.75 0.35 -1 1.25 -1 1.25 0 1.25 0.05 0.55 1.65 -1.50 3.70 -6.25 10.05 -8.65 11.65 -1.10 0.70 -1.15 0.65 -1.15 -0.70z"/>
  <path d="M312.40 279.65 c-1.80 -0.45 -1 -1.65 1.10 -1.65 1.65 0 2 0.15 2 1 0 1 -1 1.20 -3.10 0.65z"/>
  <path d="M304.75 278.95 c-5.85 -0.90 -6.25 -1 -6.25 -1.70 0 -0.90 0.30 -0.90 7.10 -0.15 4.65 0.50 5.40 0.75 5.40 1.50 0 1 -1.20 1.10 -6.25 0.35z"/>
  <path d="M294.90 277.65 c-1.80 -0.45 -1 -1.65 1.10 -1.65 1.65 0 2 0.15 2 1 0 1 -1 1.20 -3.10 0.65z"/>
  <path d="M213.50 276.90 c0 -1.50 0.65 -2.90 1.30 -2.90 0.45 0 0.70 0.60 0.70 1.75 0 1.40 -0.20 1.75 -1 1.75 -0.55 0 -1 -0.30 -1 -0.60z"/>
  <path d="M289.50 277.25 c-0.40 -0.10 -1.60 -0.30 -2.60 -0.50 -1.30 -0.20 -1.90 -0.55 -1.90 -1.10 0 -0.65 0.45 -0.75 3.05 -0.45 1.70 0.15 3.50 0.30 4 0.30 0.60 0 0.95 0.35 0.95 1 0 1 -1.15 1.20 -3.50 0.75z"/>
  <path d="M281.40 276.15 c-1.80 -0.45 -1 -1.65 1.10 -1.65 1.65 0 2 0.15 2 1 0 1 -1 1.20 -3.10 0.65z"/>
  <path d="M276.90 275.65 c-1.80 -0.45 -1 -1.65 1.10 -1.65 1.65 0 2 0.15 2 1 0 1 -1 1.20 -3.10 0.65z"/>
  <path d="M271.50 275.25 c-0.40 -0.10 -1.60 -0.30 -2.60 -0.50 -1.30 -0.20 -1.90 -0.55 -1.90 -1.10 0 -0.65 0.40 -0.75 2.65 -0.45 1.40 0.15 3.10 0.30 3.75 0.30 0.75 0 1.10 0.30 1.10 1 0 1 -0.85 1.20 -3 0.75z"/>
  <path d="M261.25 273.90 c-1.65 -0.25 -3.95 -0.35 -5.10 -0.30 -2.40 0.15 -2.90 -0.30 -0.75 -0.75 0.75 -0.15 11.80 -4.60 24.60 -9.85 12.80 -5.30 23.75 -9.80 24.40 -10.05 0.95 -0.35 1.10 -0.25 1.10 0.80 0 1.10 -0.20 1.25 -1.75 1.25 -1.20 0 -1.75 0.25 -1.75 0.75 0 0.45 -0.45 0.75 -1.25 0.75 -0.70 0 -1.25 0.25 -1.25 0.50 0 0.30 -0.55 0.50 -1.25 0.50 -0.70 0 -1.25 0.25 -1.25 0.50 0 0.30 -0.80 0.50 -1.75 0.50 -1.20 0 -1.75 0.25 -1.75 0.75 0 0.45 -0.45 0.75 -1.25 0.75 -0.70 0 -1.25 0.25 -1.25 0.50 0 0.30 -0.55 0.50 -1.25 0.50 -0.70 0 -1.25 0.25 -1.25 0.50 0 0.30 -0.80 0.50 -1.75 0.50 -1.20 0 -1.75 0.25 -1.75 0.75 0 0.45 -0.45 0.75 -1.25 0.75 -0.70 0 -1.25 0.25 -1.25 0.50 0 0.30 -0.55 0.50 -1.25 0.50 -0.70 0 -1.25 0.25 -1.25 0.50 0 0.30 -0.55 0.50 -1.25 0.50 -0.70 0 -1.25 0.25 -1.25 0.50 0 0.30 -0.80 0.50 -1.75 0.50 -1.20 0 -1.75 0.25 -1.75 0.75 0 0.45 -0.45 0.75 -1.25 0.75 -0.70 0 -1.25 0.25 -1.25 0.50 0 0.30 -0.55 0.50 -1.25 0.50 -0.70 0 -1.25 0.25 -1.25 0.50 0 0.30 -0.80 0.50 -1.75 0.50 -1.20 0 -1.75 0.25 -1.75 0.75 0 0.45 -0.45 0.75 -1.25 0.75 -0.70 0 -1.25 0.25 -1.25 0.50 0 0.30 0.80 0.50 1.75 0.50 1.40 0 1.75 0.20 1.75 1 0 1.10 -0.45 1.15 -5.25 0.40z"/>
  <path d="M215.55 272.20 c0.85 -1.05 4.15 -2.70 5.45 -2.70 0.65 0 1 0.35 1 1 0 0.80 -0.35 1 -1.75 1 -1.20 0 -1.75 0.25 -1.75 0.75 0 0.55 -0.55 0.75 -1.80 0.75 -1.60 0 -1.75 -0.10 -1.15 -0.80z"/>
  <path d="M228.50 271 c0 -1.05 0.80 -1.25 2.90 -0.70 1.95 0.55 1.35 1.70 -0.90 1.70 -1.65 0 -2 -0.15 -2 -1z"/>
  <path d="M224 270.50 c0 -1.05 0.80 -1.25 2.90 -0.70 1.95 0.55 1.35 1.70 -0.90 1.70 -1.65 0 -2 -0.15 -2 -1z"/>
  <path d="M46.75 260.90 c-1.40 -3 -1.60 -4.90 -0.55 -4.90 0.45 0 0.85 0.75 1.05 2 0.20 1.10 0.80 2.55 1.30 3.25 1 1.20 0.90 2.25 -0.10 2.25 -0.25 0 -1.05 -1.20 -1.70 -2.60z"/>
  <path d="M45.60 253.25 c0.15 -1.25 0.80 -3.35 1.50 -4.70 l1.20 -2.40 -1.70 -1.95 c-2.90 -3.30 -4.50 -7.70 -2.85 -7.70 0.60 0 0.75 -0.80 0.80 -4.10 0 -2.35 0.40 -5.70 0.95 -7.65 0.50 -1.90 0.85 -3.55 0.75 -3.65 -0.50 -0.55 -1.90 5.45 -2.10 9.30 -0.20 3.20 -0.50 4.60 -0.90 4.60 -2.15 0 -1.35 -9.20 1.35 -15.85 1.25 -3.10 4.35 -8.15 5 -8.15 0.25 0 0.40 0.60 0.40 1.40 l0 1.35 1 -1.50 c1 -1.50 1 -1.50 0 -1.75 -1 -0.25 -0.95 -0.35 0.45 -2 1.40 -1.65 1.50 -1.70 1.55 -0.60 0 1.15 0.05 1.10 1.35 -0.40 0.95 -1.15 1.15 -1.70 0.70 -1.95 -0.45 -0.30 0.10 -1.05 1.80 -2.55 5.35 -4.70 12.55 -8.75 18.40 -10.25 3.50 -0.90 10.10 -1 12.80 -0.20 4.85 1.50 7.65 5.90 7.70 12.05 0 2.15 0.10 3.90 0.20 3.90 0.15 0 2.80 -1.50 5.90 -3.30 4.80 -2.80 5.85 -3.60 6.75 -5.35 2.95 -5.90 9.05 -12.90 12.85 -14.85 2.55 -1.30 5.35 -1.35 6 -0.10 1.25 2.35 -4.50 8.90 -11.95 13.60 -3.30 2.15 -3.55 2.40 -4.35 5.15 -0.85 2.95 -1.95 3.75 -2.25 1.60 -0.10 -0.90 -0.95 0.90 -2.80 5.85 -1.50 3.95 -3.50 9.05 -4.45 11.40 -1.90 4.45 -7.15 12.90 -9.35 14.95 -1.55 1.45 -1.65 2.05 -0.30 2.05 1.65 0 1.15 0.65 -2.15 2.85 -8.20 5.45 -16 8.10 -25.15 8.50 -6.70 0.30 -10.10 -0.35 -13.40 -2.60 l-1.85 -1.25 -1.05 2.35 c-0.55 1.25 -1.15 3.15 -1.25 4.25 -0.20 1.25 -0.55 1.90 -1.05 1.90 -0.55 0 -0.70 -0.45 -0.50 -2.25z"/>
  <path d="M403.50 252 c0 -2.25 1.15 -2.85 1.70 -0.85 0.55 2.05 0.35 2.85 -0.70 2.85 -0.85 0 -1 -0.35 -1 -2z"/>
  <path d="M308.10 251.90 c0.10 -0.30 2.20 -1.40 4.70 -2.45 4.25 -1.80 4.45 -1.80 4.60 -0.85 0.20 1.20 -0.65 1.90 -2.25 1.90 -0.65 0 -1.15 0.25 -1.15 0.50 0 0.30 -0.55 0.50 -1.25 0.50 -0.70 0 -1.25 0.25 -1.25 0.50 0 0.30 -0.80 0.50 -1.80 0.50 -1.15 0 -1.70 -0.20 -1.60 -0.60z"/>
  <path d="M109.15 250.15 c-1.30 -0.25 -3.95 -2.80 -3.20 -3.05 0.30 -0.10 0.55 -0.80 0.55 -1.55 0 -2.40 1.45 -6.30 3.50 -9.50 1.10 -1.70 2 -3.20 2 -3.30 0 -0.15 -0.55 -0.25 -1.25 -0.25 -1.05 0 -1.25 0.25 -1.25 1.50 0 1.35 -0.15 1.50 -1.55 1.50 l-1.50 0 0.95 -1.35 c3.50 -4.85 12.35 -10.45 18 -11.40 2.55 -0.40 4.60 0.65 4.60 2.40 0 1 0.10 0.95 0.90 -0.40 0.85 -1.35 1.15 -1.45 4 -1.55 1.70 -0.05 3.10 0 3.10 0.05 0 0.10 -1.85 3.25 -4.15 7.05 -8.30 13.90 -9.35 16.10 -8.30 18.05 0.75 1.40 0.35 1.85 -1.25 1.45 -1.95 -0.50 -3.05 -2.55 -3.05 -5.80 l0 -2.85 -1.30 1.80 c-1.85 2.50 -6.75 7.05 -7.65 7.05 -0.40 0 -1 0.10 -1.40 0.20 -0.35 0.10 -1.15 0.05 -1.75 -0.05z m15.45 -7.15 c0.20 0 0.40 -0.50 0.40 -1.10 0 -1.45 7 -13.40 7.85 -13.40 0.35 0 0.65 -0.45 0.65 -0.95 0 -0.55 0.15 -1.30 0.30 -1.75 0.55 -1.50 -0.70 -0.80 -1.30 0.70 -0.35 0.85 -0.90 1.50 -1.20 1.50 -0.30 0 -1 1.05 -1.50 2.40 -0.55 1.30 -2.15 4.05 -3.60 6.15 -1.90 2.80 -2.65 4.40 -2.85 6.25 -0.30 2.05 -0.25 2.25 0.25 1.35 0.30 -0.65 0.75 -1.15 1 -1.15z"/>
  <path d="M204.85 249.95 c-0.80 -0.20 -1.75 -0.70 -2.20 -1.05 -1.25 -1 -2.65 -4.45 -2.65 -6.50 l0 -1.85 -4.60 4.70 c-4.45 4.55 -4.75 4.75 -6.80 4.75 -2.70 0 -3.85 -0.60 -4.85 -2.50 -1.05 -2 -0.95 -3 0.25 -3 0.55 0 1 0.30 1 0.70 0 1.15 2.80 3.80 4.05 3.80 1.55 0 8.85 -7.45 12.50 -12.75 3.20 -4.70 6.90 -7.85 12.95 -10.90 5.30 -2.70 8.55 -3.40 10 -2.10 0.55 0.50 1 1.20 1 1.60 0 1.75 1.40 -0.20 7.50 -10.45 3.65 -6.15 7.05 -11.90 7.60 -12.75 1.20 -1.95 2.40 -2.15 2.40 -0.40 0 0.70 -0.20 1.25 -0.45 1.25 -0.25 0 -0.60 0.55 -0.75 1.25 -0.20 0.70 -0.65 1.25 -1.05 1.25 -0.45 0 -0.75 0.50 -0.75 1.25 0 0.80 -0.30 1.25 -0.75 1.25 -0.45 0 -0.75 0.45 -0.75 1.05 0 1.45 -2 4.95 -2.85 4.95 -0.35 0 -0.65 0.50 -0.65 1.05 0 0.90 -4.55 9.10 -5.45 9.95 -0.15 0.15 -0.75 1.10 -1.25 2.15 -0.55 1 -1.20 1.85 -1.55 1.85 -0.30 0 -0.85 0.80 -1.20 1.80 -0.35 1 -1.85 3.55 -3.30 5.70 -1.60 2.35 -2.80 4.70 -3 5.95 -0.25 1.55 -0.55 2.05 -1.25 2.05 -0.60 0 -1 -0.40 -1.10 -1.25 -0.15 -1.10 -0.40 -0.95 -2.80 2.05 -3.80 4.55 -6.30 5.95 -9.25 5.15z m-0.30 -11.90 c0.85 -1.55 2.15 -3.60 2.85 -4.55 l1.25 -1.75 -1.95 1.90 c-1.10 1 -2.40 1.85 -2.85 1.85 -0.60 0 -0.85 0.40 -0.85 1.50 0 0.85 -0.20 1.50 -0.50 1.50 -0.30 0 -0.50 1.40 -0.45 3.40 0.05 3.25 0.05 3.30 0.50 1.15 0.20 -1.20 1.10 -3.45 2 -5z"/>
  <path d="M267.15 249.65 c-2.10 -1 -3.35 -3.65 -3 -6.35 l0.25 -2.05 -2.80 3.10 c-3.45 3.80 -5.90 5.65 -7.45 5.65 -1.65 0 -1.40 -0.80 0.35 -1.15 0.80 -0.20 2.50 -1.25 3.75 -2.40 3 -2.75 9.85 -11.90 13.65 -18.25 l3.05 -4.95 3 -0.10 c1.70 0 3.05 0.10 3.05 0.35 0 0.20 -2.40 4.30 -5.30 9.05 -6.35 10.35 -7.90 13.55 -7.50 15.20 0.35 1.45 2.05 1.65 4.25 0.50 1.85 -0.95 7.15 -6.70 10.30 -11.15 2.35 -3.30 3.25 -4.20 3.25 -3.20 0 0.70 -6.40 9.15 -8.95 11.75 -4 4.15 -7.05 5.40 -9.90 4z m1.55 -10.05 c0.80 -1.40 1.65 -2.60 1.90 -2.60 0.20 0 0.40 -0.25 0.40 -0.55 0 -0.75 5.95 -10.60 6.70 -11.05 0.40 -0.30 0.40 -0.40 -0.05 -0.40 -1.10 0 -2.15 0.60 -2.15 1.25 0 0.40 -0.30 1 -0.60 1.35 -0.35 0.40 -1.30 2 -2.15 3.60 -0.80 1.60 -1.90 3.05 -2.35 3.20 -0.50 0.10 -0.90 0.65 -0.90 1.15 0 0.65 -0.35 0.95 -1.20 0.95 -1.10 0 -1.20 0.25 -1.45 3.15 -0.15 1.70 -0.40 3.80 -0.55 4.60 -0.25 1.30 -0.25 1.30 0.30 -0.25 0.35 -1 1.30 -2.95 2.10 -4.40z"/>
  <path d="M126.50 249.65 c0 -0.25 0.90 -0.80 2 -1.30 2.55 -1.20 6.95 -5.95 12.35 -13.45 7.60 -10.50 10.65 -13.25 13.45 -11.95 2.60 1.20 3.30 5.95 1.35 9.70 -0.40 0.80 -0.60 1.55 -0.50 1.65 0.30 0.35 2.30 -2.20 4.35 -5.55 2.15 -3.50 4.95 -5.85 7.15 -5.95 2.10 -0.05 2.40 1.50 0.65 3.50 -1.25 1.40 -1.25 1.40 -1.30 0.35 0 -0.65 -0.20 -1.15 -0.45 -1.15 -0.70 0 -3.15 2.65 -4.25 4.55 -0.55 0.95 -1.50 2.10 -2.10 2.60 -0.60 0.45 -1.25 1.55 -1.45 2.35 -0.35 1.60 -1.25 2.05 -1.25 0.65 -0.05 -1.55 -4.55 3.80 -7.75 9.25 l-3 5.05 -2.80 0.05 c-1.55 0 -2.90 -0.15 -3.10 -0.30 -0.20 -0.25 3.75 -7.05 8.75 -14.95 2 -3.15 4.30 -7.90 4.45 -9.25 0.30 -2 -1.40 -1.85 -3.65 0.35 -1.10 1.05 -4.70 5.50 -8 9.90 -6.50 8.60 -9.85 12.40 -12 13.55 -1.45 0.75 -2.90 0.95 -2.90 0.35z m20.75 -6.75 c1.65 -2.75 3.30 -5.15 3.65 -5.25 0.30 -0.15 0.60 -0.50 0.60 -0.75 0 -0.30 0.80 -2.25 1.75 -4.40 0.95 -2.15 1.75 -4.20 1.75 -4.55 -0.05 -0.40 -0.50 0.35 -1.10 1.70 -0.70 1.60 -1.35 2.35 -1.95 2.35 -0.75 0 -0.95 0.35 -0.95 1.75 0 1.20 -0.25 1.75 -0.75 1.75 -0.45 0 -0.75 0.45 -0.75 1.15 0 0.95 -1.05 3.05 -1.95 3.85 -0.15 0.15 -0.75 1.10 -1.25 2.15 -0.55 1 -1.25 1.85 -1.65 1.85 -0.35 0 -0.65 0.45 -0.65 0.95 0 0.55 -0.15 1.30 -0.30 1.75 -0.15 0.45 -0.10 0.80 0.10 0.80 0.25 0 1.80 -2.30 3.45 -5.10z"/>
  <path d="M168.85 249 c-1.90 -1.50 -3.05 -4.95 -2.65 -8 l0.35 -2.55 -2.10 1.55 c-2.60 1.85 -5.40 2.05 -6.95 0.40 -0.95 -1.05 -1.40 -3.40 -0.60 -3.40 0.20 0 0.70 0.75 1.10 1.65 1.60 3.40 4.10 2.45 10.25 -3.90 5.50 -5.60 9.30 -8.35 15.05 -10.75 4.55 -1.90 7.35 -1.75 8.35 0.35 l0.55 1.20 0.60 -1.20 c0.60 -1.05 1 -1.20 3.70 -1.25 1.65 0 3 0.15 3 0.40 0 0.20 -2.15 3.95 -4.80 8.30 -2.65 4.40 -5.50 9.35 -6.30 11.10 -0.75 1.70 -1.65 3.10 -1.90 3.10 -0.30 0 -0.50 -0.90 -0.50 -2 0 -1.10 0.25 -2 0.50 -2 0.30 0 0.50 -0.40 0.50 -0.95 0 -0.50 2 -4.25 4.50 -8.35 2.45 -4.05 4.35 -7.50 4.20 -7.65 -0.30 -0.30 -2.20 1.75 -2.20 2.45 0 0.25 -0.20 0.50 -0.40 0.50 -0.25 0 -1.25 1.65 -2.25 3.65 -1 2 -2.60 4.70 -3.60 5.95 -0.95 1.30 -1.75 2.75 -1.75 3.25 0 1.85 -0.65 3.15 -1.55 3.15 -0.55 0 -0.95 -0.45 -1.05 -1.20 -0.15 -1.15 -0.40 -0.95 -2.80 2 -1.45 1.80 -3.35 3.70 -4.25 4.20 -2.10 1.30 -5.35 1.30 -7 0z m1.45 -10.65 c0.45 -0.85 1.55 -2.60 2.40 -3.85 2.25 -3.20 2.45 -3.50 1.85 -3.50 -0.30 0 -0.55 0.30 -0.55 0.70 0 0.35 -1.10 1.70 -2.45 2.95 -2.50 2.35 -2.80 3.15 -3.30 8.10 l-0.25 2.50 0.75 -2.65 c0.40 -1.45 1.10 -3.35 1.55 -4.25z"/>
  <path d="M218.60 248.85 c-0.60 -0.65 -1.25 -1.85 -1.40 -2.75 -0.30 -1.45 -0.20 -1.60 0.85 -1.65 1 0 1.55 -0.75 3.30 -4.35 2.30 -4.70 18.45 -31.25 19.20 -31.50 0.25 -0.10 0.45 -0.40 0.45 -0.70 0 -0.25 0.95 -2.05 2.15 -3.95 1.90 -3.15 3.80 -4.70 4.65 -3.80 0.15 0.15 -1.75 3.50 -4.20 7.45 -19.05 30.60 -22.60 36.80 -22.60 39.40 0 3.20 3 2.40 7.30 -2 5.85 -6 9.35 -11.25 23.50 -35.60 3.80 -6.60 5.70 -9.40 6.30 -9.40 0.55 0 0.90 0.40 0.90 1 0 0.55 -0.20 1 -0.45 1 -0.25 0 -0.60 0.55 -0.75 1.25 -0.20 0.70 -0.65 1.25 -1.05 1.25 -0.45 0 -0.75 0.50 -0.75 1.25 0 0.80 -0.30 1.25 -0.75 1.25 -0.45 0 -0.75 0.45 -0.75 1.05 0 1.45 -2 4.95 -2.85 4.95 -0.35 0 -0.65 0.45 -0.65 0.95 0 1.50 -0.55 2.55 -1.30 2.55 -0.40 0 -0.70 0.45 -0.70 0.95 0 1.50 -0.55 2.55 -1.30 2.55 -0.40 0 -0.70 0.50 -0.70 1.25 0 0.80 -0.30 1.25 -0.75 1.25 -0.45 0 -0.75 0.45 -0.75 1.25 0 0.80 -0.30 1.25 -0.75 1.25 -0.45 0 -0.75 0.45 -0.75 1.25 0 0.80 -0.30 1.25 -0.75 1.25 -0.45 0 -0.75 0.45 -0.75 1.25 0 0.90 -0.25 1.25 -1 1.25 -0.80 0 -1 0.35 -1 1.75 0 0.95 -0.20 1.75 -0.50 1.75 -0.25 0 -0.50 0.35 -0.50 0.75 0 0.40 -0.20 0.75 -0.50 0.75 -0.25 0 -0.50 0.30 -0.50 0.65 0 0.30 -0.45 1.15 -1 1.85 -0.55 0.70 -1 1.60 -1 2 0 1.15 -2.20 5 -2.80 5 -0.50 0 -1.30 3 -0.95 3.40 0.10 0.10 1 -1.35 2.05 -3.25 1.05 -1.85 3.10 -5.35 4.55 -7.75 1.45 -2.35 2.65 -4.65 2.65 -5.05 0 -0.90 9.35 -16.55 10.05 -16.75 0.25 -0.10 0.45 -0.45 0.45 -0.75 0 -0.65 7.05 -12.05 7.60 -12.25 0.20 -0.10 0.40 -0.50 0.40 -0.90 0 -0.60 1.85 -1.70 2.80 -1.70 0.50 0 0.10 1.15 -1 2.90 -3.75 5.85 -15.80 25.60 -15.80 25.90 0 0.20 1.10 -0.70 2.40 -1.95 4.40 -4.05 6.95 -4.75 9.55 -2.55 2.20 1.85 2.85 4.40 1.90 7.60 -0.70 2.50 -8.15 14.60 -8.95 14.60 -0.20 0 -0.40 -0.70 -0.40 -1.55 0 -1.05 1.10 -3.25 3.60 -7.10 2 -3.10 3.80 -5.65 4 -5.75 0.25 -0.10 0.40 -1 0.35 -2 0 -1.70 -0.05 -1.75 -0.55 -0.70 -0.35 0.65 -1 1.10 -1.75 1.10 -1.35 0 -1.40 -0.30 -0.40 -2 1.75 -3.05 0 -5.15 -3 -3.60 -3.75 1.90 -10.30 10.40 -16.25 21 l-2.55 4.60 -2.75 0 c-1.50 0 -2.70 -0.15 -2.70 -0.35 0 -0.15 0.80 -1.75 1.75 -3.55 1 -1.75 1.70 -3.30 1.60 -3.40 -0.10 -0.10 -1.35 1.05 -2.80 2.60 -3.35 3.55 -5.30 4.70 -7.85 4.70 -1.45 0 -2.30 -0.30 -3.10 -1.15z"/>
  <path d="M249.90 249 c-1.80 -1.40 -2.15 -3 -0.70 -3 1.40 0 2.80 1.45 2.80 2.90 0 1.35 -0.50 1.40 -2.10 0.10z"/>
  <path d="M402.50 247.75 c0 -2 1.20 -2.45 1.70 -0.60 0.50 1.85 0.35 2.35 -0.70 2.35 -0.80 0 -1 -0.35 -1 -1.75z"/>
  <path d="M319.10 247.40 c0.15 -0.35 0.95 -0.90 1.80 -1.25 1.55 -0.65 1.60 -0.60 1.60 0.60 0 1.10 -0.20 1.25 -1.80 1.25 -1.15 0 -1.70 -0.20 -1.60 -0.60z"/>
  <path d="M325.10 244.90 c0.15 -0.35 3.60 -2 7.70 -3.70 6.95 -2.90 7.45 -3.05 7.60 -2.10 0.20 1.20 -0.65 1.90 -2.25 1.90 -0.65 0 -1.15 0.25 -1.15 0.50 0 0.30 -0.55 0.50 -1.25 0.50 -0.70 0 -1.25 0.25 -1.25 0.50 0 0.30 -0.55 0.50 -1.25 0.50 -0.70 0 -1.25 0.25 -1.25 0.50 0 0.30 -0.80 0.50 -1.75 0.50 -1.20 0 -1.75 0.25 -1.75 0.75 0 0.55 -0.55 0.75 -1.80 0.75 -1.20 0 -1.70 -0.20 -1.60 -0.60z"/>
  <path d="M248 243 c0 -0.55 0.35 -1.80 0.75 -2.80 0.90 -2.10 5.85 -9.65 6.40 -9.70 0.20 0 0.35 0.80 0.35 1.75 0 1.40 -0.20 1.75 -1 1.75 -0.80 0 -1 0.35 -1 1.55 0 1.10 -0.25 1.60 -0.95 1.80 -0.55 0.15 -1.05 0.85 -1.20 1.55 -0.60 3.05 -1.60 5.10 -2.45 5.10 -0.55 0 -0.90 -0.40 -0.90 -1z"/>
  <path d="M104.50 241 c0 -1.45 1.35 -4.50 1.95 -4.50 0.60 0 0.70 1.60 0.25 3.95 -0.40 1.80 -2.20 2.25 -2.20 0.55z"/>
  <path d="M94.50 237.15 c0 -1 0.55 -2 1.90 -3.30 1.05 -1 2.15 -1.85 2.50 -1.85 0.35 0 0.60 -0.35 0.60 -0.75 0 -0.65 2.20 -4.55 3 -5.25 0.15 -0.15 0.60 -1.20 1 -2.35 0.50 -1.70 0.90 -2.15 1.80 -2.15 1 0 1.10 0.15 0.75 1.40 -1.30 4.40 -6.60 12.15 -10.05 14.60 l-1.50 1.05 0 -1.40z"/>
  <path d="M342.10 237.90 c0.15 -0.35 0.95 -0.90 1.80 -1.25 1.55 -0.65 1.60 -0.60 1.60 0.60 0 1.10 -0.20 1.25 -1.80 1.25 -1.15 0 -1.70 -0.20 -1.60 -0.60z"/>
  <path d="M347.10 235.90 c0.20 -0.55 13.70 -6.45 18.75 -8.15 3.05 -1.05 9.40 -1.90 11.20 -1.50 2.55 0.60 1.80 1.75 -1.15 1.75 -3.05 0 -10.90 1.50 -10.90 2.10 0 0.20 -0.55 0.40 -1.25 0.40 -0.70 0 -1.25 0.25 -1.25 0.50 0 0.30 -0.55 0.50 -1.25 0.50 -0.70 0 -1.25 0.25 -1.25 0.50 0 0.30 -0.80 0.50 -1.75 0.50 -1.20 0 -1.75 0.25 -1.75 0.75 0 0.45 -0.45 0.75 -1.05 0.75 -0.55 0 -1.35 0.35 -1.75 0.75 -0.45 0.40 -1.30 0.75 -2 0.75 -0.65 0 -1.20 0.25 -1.20 0.50 0 0.30 -0.80 0.50 -1.80 0.50 -1.15 0 -1.70 -0.20 -1.60 -0.60z"/>
  <path d="M393.05 234.80 c-0.35 -0.40 -0.55 -1.35 -0.45 -2.10 l0.15 -1.30 2.25 2 2.25 2.05 -1.80 0.05 c-1 0 -2.10 -0.30 -2.40 -0.70z"/>
  <path d="M105.50 218.75 c0 -1.40 0.20 -1.75 1 -1.75 1.05 0 1.20 0.50 0.70 2.40 -0.50 1.80 -1.70 1.35 -1.70 -0.65z"/>
  <path d="M279.65 218.50 c-2.45 -1 -0.50 -5.95 2.60 -6.70 4.15 -1.05 4.35 4.30 0.25 6.45 -0.80 0.40 -1.50 0.75 -1.60 0.70 -0.10 0 -0.65 -0.20 -1.25 -0.45z m3.65 -4.35 c-0.40 -0.40 -2.25 0.60 -2.45 1.35 -0.40 1.50 0.15 1.55 1.40 0.10 0.65 -0.75 1.10 -1.40 1.05 -1.45z"/>
  <path d="M107.50 210.50 c0 -1.65 0.15 -2 1 -2 1.05 0 1.25 0.80 0.70 2.90 -0.55 1.95 -1.70 1.35 -1.70 -0.90z"/>
 </g>
 <g fill="#122f75">
  <path d="M47.35 261.85 c-2.15 -3.30 -2.20 -8.70 -0.15 -13.20 l1.15 -2.40 -2.20 -2.85 c-3.10 -4.05 -3.80 -6.85 -3.55 -13.65 0.20 -4.35 0.55 -6.20 1.60 -9 2.75 -7.20 6.70 -12.45 13.75 -18.30 14.65 -12.20 32.15 -14.05 36.55 -3.90 0.85 2.05 1.05 3.30 0.90 6.50 -0.10 2.20 -0.05 3.95 0 3.95 0.10 0 2.95 -1.55 6.30 -3.50 5.60 -3.20 6.20 -3.65 7.25 -5.85 3.90 -8.10 12.35 -16 16.70 -15.55 4.60 0.45 0.30 6.80 -9.15 13.55 -2.35 1.65 -4.45 3.15 -4.65 3.35 -0.20 0.20 -0.95 2.70 -1.65 5.55 -4.45 18.90 -5.95 22.25 -12.85 29.35 -9.40 9.65 -24.30 15.70 -36.50 14.95 -4.15 -0.25 -6.45 -1.05 -11.40 -3.70 -0.15 -0.10 -0.80 1 -1.40 2.40 -1.40 3.40 -1.45 8.20 -0.05 11.05 1.15 2.40 1.15 2.40 0.55 2.40 -0.25 0 -0.80 -0.55 -1.20 -1.15z m23.25 -12.80 c9.35 -2.40 17.25 -8.35 24.10 -18.15 3.10 -4.45 4.80 -7.95 8.80 -18.45 l3.40 -9 -1.55 0.95 c-0.90 0.55 -3.65 2.15 -6.15 3.55 -3.90 2.25 -4.65 2.85 -4.90 4.15 -1 5.05 -7.70 15.10 -12.90 19.45 -7.40 6.15 -15.35 7.75 -19.30 3.90 -1.60 -1.55 -1.65 -1.60 -2.70 -0.65 -4.10 3.65 -9.65 10.45 -9.15 11.20 0.45 0.70 4.05 2.50 6.50 3.30 3.05 0.95 9.55 0.85 13.85 -0.25z m-13.25 -13.70 l2.50 -2.40 -0.70 -2.10 c-3.40 -9.75 8.10 -25.10 20.45 -27.35 5.40 -1 8.80 0.90 9.30 5.30 0.15 1.70 0.10 2.25 -0.35 2 -0.30 -0.20 -0.55 -1.15 -0.55 -2.10 0 -1.20 -0.40 -2.10 -1.25 -2.90 -5.80 -5.35 -19.90 3.90 -24.75 16.25 -1.15 2.90 -1.90 8.65 -1.20 9.10 0.25 0.15 2.05 -0.95 3.95 -2.45 4.85 -3.75 12 -8.55 18.50 -12.40 12.15 -7.20 11.05 -6.25 11.40 -9.60 0.90 -8.80 -3.40 -13.70 -12 -13.70 -14.55 0 -32.75 17.80 -36.15 35.35 -0.95 4.80 -0.45 10.45 1.20 13.85 l1.35 2.80 2.90 -3.65 c1.60 -1.95 4.05 -4.70 5.40 -6z m17.45 -0.35 c6.35 -3.10 14.35 -12.25 17.45 -19.95 1.50 -3.60 1.50 -3.60 0.45 -3.20 -1.25 0.50 -13 7.65 -18.25 11.15 -5.45 3.65 -12.95 9.40 -12.95 9.95 0 0.60 2.65 2.95 4 3.50 2.10 0.90 5.75 0.30 9.30 -1.45z m42.50 -38.80 c3.40 -2.50 7.65 -6.70 8.50 -8.30 1.10 -2.15 0.90 -2.90 -0.85 -2.90 -3.60 0 -9.05 5.80 -12.30 13.15 l-0.60 1.35 1.40 -0.75 c0.80 -0.40 2.50 -1.55 3.85 -2.55z"/>
  <path d="M107.30 248.95 c-2.80 -2.20 -3.45 -5.55 -2.10 -10.15 1.50 -4.95 6.40 -9.75 13.60 -13.35 6.35 -3.20 10.30 -3.30 11 -0.35 l0.35 1.65 0.75 -1.60 c0.75 -1.60 0.90 -1.65 3.70 -1.65 3.45 0 3.80 -1.20 -2.70 9.60 -4.50 7.50 -6.90 12.35 -6.90 13.85 0 1.20 1 2.05 2.40 2.05 1.95 0 7.15 -5.45 14.10 -14.75 8.25 -11 11.35 -13.25 13.95 -9.95 1.55 2 1.40 5.25 -0.50 9.20 l-1.50 3.25 2.05 -2 c1.15 -1.10 2.75 -3.30 3.60 -4.90 2.40 -4.50 6.35 -7.55 8.65 -6.65 0.40 0.15 0.75 0.55 0.75 0.90 0 1.25 -3 4.30 -6.50 6.60 -3.90 2.60 -4.50 3.40 -4.50 6.25 0 2 1.30 4.05 2.50 4.05 1.80 0 4.70 -2.15 9.65 -7.15 4.85 -4.90 6.20 -6 10.25 -8.05 7.10 -3.60 11.60 -3.75 11.60 -0.35 l0 1.30 1.05 -1.60 c0.95 -1.55 1.25 -1.65 3.75 -1.65 1.50 0 2.70 0.20 2.70 0.40 0 0.20 -2.05 3.75 -4.55 7.85 -5.45 8.90 -6.90 11.85 -7.30 14.55 -0.25 1.80 -0.10 2.20 0.80 2.70 0.90 0.45 1.40 0.35 2.80 -0.50 2.30 -1.40 7.30 -6.95 10.05 -11.10 1.25 -1.85 3.70 -4.70 5.50 -6.35 4.20 -3.80 11.50 -7.60 15.35 -7.95 2.95 -0.25 3.30 0 3.80 2.50 0.30 1.50 0.35 1.45 14 -21.70 l2.30 -3.90 2.85 0 c1.60 0 2.90 0.20 2.90 0.45 0 0.25 -2.45 4.35 -5.40 9.15 -16.25 25.95 -21.60 35.30 -21.60 37.75 0 0.60 0.45 1.35 1 1.65 2 1.05 4.80 -1.05 11.20 -8.50 1.30 -1.50 1.65 -1.75 1.05 -0.75 -1.55 2.60 -5.80 7.25 -8.05 8.75 -2.80 1.95 -4.80 1.95 -6.70 0.05 -1.85 -1.80 -2.25 -3.60 -1.60 -6.50 l0.50 -2.30 -1.35 1.70 c-6.75 8.75 -10.40 10.45 -14.15 6.55 -1.80 -1.95 -1.90 -2.20 -1.90 -5.40 l0 -3.35 -1.85 2.25 c-1 1.25 -3.25 3.65 -4.90 5.40 -2.80 2.80 -3.30 3.10 -5.15 3.10 -4 0 -6.45 -3.75 -5.20 -7.90 0.30 -1 0.50 -1.85 0.45 -1.90 -0.05 -0.05 -1.55 1.65 -3.30 3.80 -5.35 6.50 -8.70 7.60 -12.20 3.95 l-1.95 -2.10 0.20 -3.55 c0.15 -1.95 0.40 -4 0.65 -4.55 0.25 -0.60 -0.45 -0.20 -1.80 1.10 -3 2.85 -5.75 3.35 -7.70 1.40 -1.25 -1.20 -1.35 -1.60 -1.10 -3.90 l0.25 -2.60 -2.60 2.80 c-1.40 1.55 -3.90 5.10 -5.55 7.90 l-3 5 -2.85 0.05 c-1.60 0 -2.90 -0.15 -2.90 -0.35 0 -0.20 0.55 -1.15 1.20 -2.10 6 -9.10 11.90 -19.70 12 -21.65 0.15 -4.25 -3.65 -0.95 -12.30 10.60 -3.15 4.25 -7.25 9.15 -9.05 10.90 -2.90 2.75 -3.50 3.10 -5.30 3.10 -1.40 0 -2.40 -0.35 -3.40 -1.20 -1.30 -1.15 -1.40 -1.45 -1.45 -5.35 l-0.05 -4.20 2.25 -3 c3 -4.10 5.10 -8.35 5.10 -10.50 0 -1.45 -0.20 -1.80 -1.30 -2.05 -2.05 -0.50 -5.15 1.25 -9.25 5.30 -6.45 6.30 -11.05 14.65 -10.15 18.25 0.40 1.70 2.40 2.50 4.25 1.70 1.40 -0.55 4.95 -4.10 7.60 -7.45 0.75 -0.95 1.35 -1.50 1.35 -1.20 0 0.85 -5.60 7.30 -7.45 8.55 -2.15 1.45 -4.95 1.50 -6.75 0.10z m68.10 -0.65 c5.60 -4.10 16.20 -19.90 15.40 -23 -0.80 -3.20 -5.40 -1.65 -10.55 3.50 -8.05 8.05 -12.45 17.60 -9.15 19.90 1.55 1.10 2.45 1 4.30 -0.40z m32.75 0.50 c4.25 -1.80 16.80 -18.85 16.85 -22.85 0 -1.45 -1.80 -2.60 -3.45 -2.20 -5.70 1.25 -16.90 15.05 -17.45 21.50 -0.20 2.30 -0.05 2.70 0.95 3.45 1.40 0.95 1.15 0.95 3.10 0.10z"/>
  <path d="M249.50 248.15 c-1.50 -1.70 -1.60 -2.05 -1.35 -4.40 0.30 -3.10 1.15 -4.85 5.55 -11.50 3.80 -5.70 4.30 -7 3.15 -8.15 -1.50 -1.45 -4.45 0.05 -8.65 4.55 -2.05 2.15 -3.70 3.70 -3.70 3.45 0 -0.80 5.95 -7 7.80 -8.15 1.35 -0.80 2.25 -1 3.80 -0.80 2.95 0.40 4.05 1.70 4.30 5.25 0.25 3.40 0.05 3.85 -4.75 11.20 -2.65 4.05 -3.35 5.45 -3.35 7.10 -0.05 2.20 0.65 2.70 2.95 2.10 2.60 -0.65 11.70 -11.80 17 -20.80 l2.50 -4.25 3.15 -0.15 3.15 -0.15 -1.35 2.15 c-11 17.35 -13.15 22.10 -10.75 23.35 0.85 0.50 1.50 0.40 3.20 -0.35 2.45 -1.10 4.75 -3.50 9.80 -10.25 2.05 -2.65 3.80 -4.85 3.90 -4.85 0.75 0 -6.30 9.25 -9.50 12.55 -4.05 4.15 -7.80 5.05 -10.40 2.50 -1.15 -1.20 -1.45 -1.90 -1.45 -3.75 0 -1.20 0.20 -2.80 0.50 -3.50 0.30 -0.85 0.30 -1.30 0 -1.30 -0.30 0 -0.50 0.20 -0.50 0.40 0 0.25 -1.55 2.10 -3.50 4.20 -5.40 5.85 -8.60 6.85 -11.50 3.55z"/>
  <path d="M230.30 247.15 c0.75 -1.35 2.10 -3.70 3.05 -5.30 0.90 -1.60 1.55 -3.10 1.40 -3.35 -0.15 -0.25 0.50 -1.55 1.40 -2.85 1.60 -2.20 7.05 -11.30 14.25 -23.65 1.50 -2.60 3.70 -6.30 4.85 -8.25 l2.05 -3.50 3.15 -0.15 3.10 -0.15 -3.35 5.40 c-15 24.20 -17.30 28.05 -16.25 27.45 0.90 -0.55 0.65 -0.10 -1.65 3.35 -1.25 1.85 -3.50 5.55 -5.05 8.35 l-2.80 5 -2.75 0 -2.75 0 1.35 -2.35z"/>
  <path d="M279 217.75 c-1.45 -1.75 1.35 -5.75 4.05 -5.75 0.90 0 1.60 0.35 1.95 0.95 1.50 2.90 -3.95 7.25 -6 4.80z"/>
 </g>
 <g fill="#c138b3">
  <path d="M369.50 285.95 c-1.50 -0.25 -3.10 -0.45 -3.50 -0.50 -1.95 -0.10 -10.40 -1 -11.35 -1.20 -0.65 -0.15 -1.15 -0.55 -1.15 -0.95 0 -0.35 -0.60 -0.95 -1.35 -1.35 -0.80 -0.40 -1.85 -1.10 -2.35 -1.55 -0.55 -0.50 -1.25 -0.90 -1.60 -0.90 -0.35 0 -1.80 -0.25 -3.20 -0.55 l-2.50 -0.55 0 -2.20 c0 -2.75 -0.50 -3 -7.20 -3.50 -3.85 -0.25 -4.95 -0.55 -5.45 -1.25 -0.40 -0.55 -1.60 -1 -3.30 -1.25 -1.50 -0.20 -2.75 -0.65 -2.90 -1 -0.15 -0.40 -0.90 -0.70 -1.70 -0.70 -0.80 0 -1.45 -0.20 -1.45 -0.50 0 -0.25 -0.40 -0.50 -0.95 -0.50 -0.50 0 -1.45 -0.65 -2.10 -1.45 -0.70 -0.85 -2.10 -1.70 -3.45 -2.10 -1.25 -0.35 -2.45 -0.80 -2.75 -1.05 -0.25 -0.20 -1.15 -0.40 -2 -0.40 -0.80 -0.05 -2.05 -0.35 -2.70 -0.70 -0.70 -0.40 -2.05 -0.55 -3.35 -0.40 -1.20 0.10 -2.45 0 -2.80 -0.25 -0.35 -0.30 -1.90 -0.70 -3.45 -0.85 -2.20 -0.30 -3.35 -0.15 -5.50 0.65 -3.15 1.20 -5.45 1.35 -5.45 0.35 0 -0.40 2.90 -1.90 7.40 -3.70 4.05 -1.70 13.40 -5.55 20.85 -8.65 14.45 -5.95 15.10 -6.10 18.80 -4.25 1 0.50 2.90 0.80 4.90 0.80 1.80 0 4.65 0.40 6.30 0.80 1.65 0.45 4.35 0.95 6 1.05 1.65 0.15 3.10 0.40 3.25 0.60 0.40 0.50 3.70 1.55 4.90 1.55 0.70 0 1.10 0.30 1.10 0.90 0 0.85 2.90 2.10 5 2.10 0.55 0 1 0.25 1 0.50 0 0.30 0.45 0.50 1 0.50 0.55 0 1 0.25 1 0.50 0 0.30 0.35 0.50 0.75 0.50 0.40 0 0.95 0.45 1.25 1 0.30 0.55 0.85 1 1.25 1 0.35 0 0.75 0.20 0.85 0.45 0.10 0.25 2.45 0.70 5.25 0.95 2.80 0.30 5.50 0.75 6.10 1.05 0.55 0.30 1.55 0.55 2.25 0.55 0.70 0 1.30 0.25 1.30 0.50 0 0.30 0.75 0.50 1.70 0.50 0.95 0 1.90 0.25 2.05 0.50 0.15 0.30 0.75 0.50 1.25 0.50 0.55 0 1 0.40 1.10 1.05 0.20 1.35 0.85 1.70 4.50 2.45 2.55 0.50 3 0.75 3.70 2.30 0.45 0.95 1.10 1.70 1.50 1.70 1.05 0 -1.95 4.60 -5.45 8.30 -3 3.25 -7.65 6.25 -12.05 7.80 -2.90 1.05 -11.35 1.50 -15.30 0.85z"/>
  <path d="M335.85 282.15 c-0.50 -0.15 -0.85 -0.60 -0.75 -1.05 0.10 -0.65 0.80 -0.90 2.80 -1 2.50 -0.15 2.60 -0.10 2.60 1.10 0 1.20 -0.20 1.30 -1.85 1.25 -1.05 -0.05 -2.30 -0.15 -2.80 -0.30z"/>
  <path d="M318.05 280.05 c-1.25 -0.80 -0.20 -2.05 1.70 -2.05 1.55 0 1.75 0.15 1.75 1.25 0 1.05 -0.25 1.25 -1.35 1.25 -0.80 0 -1.70 -0.20 -2.10 -0.45z"/>
  <path d="M228 271 c0 -1.05 0.50 -1.20 2.40 -0.70 1.80 0.50 1.35 1.70 -0.65 1.70 -1.40 0 -1.75 -0.20 -1.75 -1z"/>
  <path d="M222 270.45 c0 -0.85 0.25 -1 1.85 -0.85 1.35 0.10 1.95 0.40 2.05 1.05 0.15 0.70 -0.20 0.85 -1.85 0.85 -1.75 0 -2.05 -0.15 -2.05 -1.05z"/>
  <path d="M262.50 270.80 c0 -0.35 0.40 -0.80 0.90 -0.95 0.45 -0.10 1.25 -0.40 1.75 -0.60 0.70 -0.30 0.85 -0.10 0.85 0.95 0 1.15 -0.20 1.30 -1.75 1.30 -1.15 0 -1.75 -0.25 -1.75 -0.70z"/>
  <path d="M282 262.80 c0 -0.35 0.40 -0.80 0.90 -0.95 0.45 -0.10 1.25 -0.40 1.75 -0.60 0.70 -0.30 0.85 -0.10 0.85 0.95 0 1.15 -0.20 1.30 -1.75 1.30 -1.15 0 -1.75 -0.25 -1.75 -0.70z"/>
 </g>
 <g fill="#c64599">
  <path d="M377.20 285.45 c-0.80 -0.90 -0.80 -0.95 0.95 -0.95 1.25 0 1.85 0.25 1.85 0.70 0 1.10 -1.85 1.30 -2.80 0.25z"/>
  <path d="M246.50 275.80 c0 -1.15 0.20 -1.30 1.75 -1.30 1.85 0 2.50 1.15 0.90 1.65 -0.50 0.10 -1.30 0.40 -1.75 0.60 -0.75 0.30 -0.90 0.10 -0.90 -0.95z"/>
  <path d="M253.50 273.50 c0 -0.25 0.50 -0.50 1.15 -0.50 0.90 0 0.95 0.10 0.35 0.50 -0.95 0.65 -1.50 0.65 -1.50 0z"/>
  <path d="M217 271.50 c0 -0.60 1.65 -1.50 2.70 -1.50 0.45 0 0.80 0.45 0.80 1 0 0.80 -0.35 1 -1.75 1 -0.95 0 -1.75 -0.20 -1.75 -0.50z"/>
  <path d="M223 270.60 c0 -0.65 0.35 -0.85 1.40 -0.80 2.45 0.15 2.60 0.20 2.60 0.95 0 0.55 -0.55 0.75 -2 0.75 -1.60 0 -2 -0.20 -2 -0.90z"/>
  <path d="M399.30 268.80 c-0.70 -1.55 -1.15 -1.80 -3.70 -2.30 -3.65 -0.75 -4.30 -1.10 -4.50 -2.45 -0.10 -0.65 -0.55 -1.05 -1.10 -1.05 -0.50 0 -1.10 -0.20 -1.25 -0.50 -0.15 -0.25 -1.10 -0.50 -2.05 -0.50 -0.95 0 -1.70 -0.20 -1.70 -0.50 0 -0.25 -0.60 -0.50 -1.30 -0.50 -0.70 0 -1.70 -0.25 -2.25 -0.55 -0.60 -0.30 -3.30 -0.75 -6.10 -1.05 -2.80 -0.25 -5.15 -0.70 -5.25 -0.95 -0.10 -0.25 -0.50 -0.45 -0.85 -0.45 -0.40 0 -0.95 -0.45 -1.25 -1 -0.30 -0.55 -0.85 -1 -1.25 -1 -0.40 0 -0.75 -0.20 -0.75 -0.50 0 -0.25 -0.45 -0.50 -1 -0.50 -0.55 0 -1 -0.20 -1 -0.50 0 -0.25 -0.45 -0.50 -1 -0.50 -2.10 0 -5 -1.25 -5 -2.10 0 -0.55 -0.40 -0.90 -1 -0.90 -1.20 0 -5 -1.15 -5 -1.50 0 -0.15 -1.20 -0.30 -2.65 -0.40 -1.40 -0.10 -3.60 -0.50 -4.85 -0.95 -1.25 -0.40 -4.25 -0.85 -6.75 -1 -2.55 -0.15 -5.25 -0.60 -6.25 -1.05 -2 -0.90 -5.95 -1 -8.45 -0.15 -0.95 0.30 -1.50 0.35 -1.25 0.10 0.40 -0.40 15.60 -6.70 39.20 -16.30 6.80 -2.80 10.15 -3.40 16.85 -3.15 5.25 0.15 5.55 0.25 10.20 2.50 3.75 1.85 5.60 3.10 8.50 6 5.85 5.75 8.30 11.35 8.80 20.15 0.55 9.90 -3.50 18.95 -6.05 13.55z"/>
  <path d="M279.50 263.80 c0 -0.35 0.40 -0.80 0.90 -0.95 0.45 -0.10 1.25 -0.40 1.75 -0.60 0.70 -0.30 0.85 -0.10 0.85 0.95 0 1.15 -0.20 1.30 -1.75 1.30 -1.15 0 -1.75 -0.25 -1.75 -0.70z"/>
  <path d="M286.65 260.90 c0.10 -0.35 0.50 -0.60 0.80 -0.50 0.30 0.05 0.55 -0.10 0.55 -0.30 0 -0.20 0.50 -0.45 1.10 -0.45 0.65 -0.05 1.20 -0.35 1.30 -0.60 0.10 -0.25 0.50 -0.35 0.90 -0.20 0.40 0.15 0.70 0.05 0.70 -0.25 0 -0.30 0.45 -0.40 1 -0.25 1.75 0.45 1.15 1.60 -1 1.95 -1.10 0.20 -2 0.50 -2 0.75 0 0.25 -0.80 0.45 -1.80 0.45 -1.20 0 -1.70 -0.20 -1.55 -0.60z"/>
 </g>
 <g fill="#bf30c3">
  <path d="M371 286.10 c-0.70 -0.10 -1.40 -0.45 -1.55 -0.70 -0.20 -0.30 -0.60 -0.35 -1 -0.10 -0.90 0.55 -3.60 0.25 -4 -0.40 -0.20 -0.35 -0.45 -0.35 -0.65 0 -0.40 0.65 -2.45 0.15 -2.95 -0.75 -0.50 -0.80 -2.20 -0.85 -2.45 -0.05 -0.15 0.45 -0.45 0.40 -1.10 -0.25 -1.05 -1.05 -1.25 -1.05 -2 -0.20 -0.45 0.55 -1.85 0.55 -8.30 -0.20 -4.40 -0.50 -7.80 -1.10 -7.90 -1.40 -0.15 -0.40 -1 -0.45 -2.50 -0.30 -2.95 0.40 -16.20 -1.05 -16.65 -1.80 -0.20 -0.35 -0.45 -0.35 -0.60 -0.10 -0.35 0.55 -62.85 -6.25 -62.85 -6.85 0 -0.15 1.65 -0.90 3.65 -1.65 1.95 -0.80 3.95 -1.60 4.40 -1.85 0.45 -0.20 4.25 -1.80 8.50 -3.50 10.35 -4.15 10.05 -4.05 11.50 -4.80 0.70 -0.35 1.80 -0.75 2.50 -0.90 0.65 -0.10 2.20 -0.60 3.45 -1.05 2.65 -0.95 7.50 -1.45 7.50 -0.75 0 0.30 0.75 0.50 1.70 0.50 0.95 0 1.85 0.20 2 0.45 0.15 0.25 1.25 0.30 2.45 0.20 1.45 -0.20 2.70 0 3.75 0.55 0.85 0.45 2.20 0.80 3 0.80 0.75 0 1.60 0.20 1.85 0.40 0.30 0.25 1.50 0.70 2.75 1.05 1.35 0.40 2.75 1.25 3.45 2.10 0.65 0.80 1.60 1.45 2.10 1.45 0.55 0 0.95 0.25 0.95 0.50 0 0.30 0.65 0.50 1.45 0.50 0.80 0 1.55 0.30 1.70 0.70 0.15 0.35 1.40 0.80 2.90 1 1.70 0.25 2.90 0.70 3.30 1.25 0.50 0.70 1.65 1 5.50 1.25 5.60 0.45 8.15 1.35 8.15 3 0 0.60 -0.25 1.35 -0.60 1.70 -0.85 0.85 -0.40 1.05 3.05 1.70 1.65 0.30 3.45 0.95 3.95 1.35 2 1.85 3.65 2.30 8.15 2.15 4.15 -0.10 4.45 -0.05 4.45 0.90 0 0.80 0.35 1 1.65 1.05 7.70 0.15 14.70 0.80 15.85 1.50 0.65 0.35 0.60 0.40 -0.10 0.45 -0.50 0 -0.90 0.25 -0.90 0.50 0 0.30 -0.65 0.50 -1.45 0.50 -0.85 0 -1.65 -0.20 -1.80 -0.50 -0.45 -0.70 -3.30 -0.60 -4.20 0.15 -0.45 0.35 -1.35 0.55 -2.05 0.45z"/>
  <path d="M213.50 277.80 c0 -1.75 0.50 -2.80 1.30 -2.80 0.50 0 0.70 0.60 0.70 2 0 1.65 -0.15 2 -1 2 -0.70 0 -1 -0.35 -1 -1.20z"/>
  <path d="M246 275.35 c0 -2.70 3.20 -3.70 7.85 -2.40 1.35 0.40 1.30 0.45 -1.55 1.75 -1.60 0.70 -3.20 1.30 -3.60 1.30 -0.35 0 -0.80 0.25 -0.95 0.50 -0.70 1.15 -1.75 0.45 -1.75 -1.15z"/>
  <path d="M227 271 c0 -1.05 0.80 -1.25 2.90 -0.70 1.95 0.55 1.35 1.70 -0.90 1.70 -1.65 0 -2 -0.15 -2 -1z"/>
  <path d="M219.50 270.80 c0 -0.75 1.05 -1.30 2.55 -1.30 0.60 0 0.95 0.35 0.95 1 0 0.80 -0.35 1 -1.75 1 -1.15 0 -1.75 -0.25 -1.75 -0.70z"/>
 </g>
 <g fill="#ba23e0">
  <path d="M217.50 284.90 c-2.95 -2.05 -3.75 -3.60 -3.70 -7.25 0.05 -2.35 0.35 -3.60 1.05 -4.55 1.05 -1.45 3.70 -2.90 5.75 -3.30 2.20 -0.40 25.60 1.90 28.55 2.80 1.95 0.60 2.50 1.40 1 1.40 -1.15 0.05 -2.40 1.05 -2.40 1.90 0 0.40 -1.80 1.45 -4 2.35 -2.20 0.90 -7.35 3 -11.45 4.70 -8.65 3.55 -11.80 3.95 -14.80 1.95z"/>
  <path d="M259.85 272.80 c-0.45 -1.10 -0.15 -1.60 1.15 -1.95 0.70 -0.15 1.15 0 1.35 0.50 0.30 0.75 -0.75 1.75 -1.40 1.35 -0.20 -0.10 -0.45 0.05 -0.55 0.40 -0.15 0.35 -0.35 0.25 -0.55 -0.30z"/>
 </g>
</svg>